<svg xmlns="http://www.w3.org/2000/svg" viewBox="0 0 32 32" shape-rendering="crispEdges"><style>.fur{fill:#FFF8E1}.fur-shade{fill:#EADFA8}.skin{fill:#5B3A8E}.skin-deep{fill:#3F2766}.face{fill:#D8CCEE}.face-shade{fill:#AE9CD6}.teeth{fill:#FFFFFF}.line{fill:#26183A}@media (prefers-color-scheme:dark){.fur{fill:#4A4468}.fur-shade{fill:#3A3454}.skin{fill:#F2D54C}.skin-deep{fill:#C7A72C}.face{fill:#B7ACDB}.face-shade{fill:#8C7FB8}.teeth{fill:#FFF8E1}.line{fill:#120C1F}}</style><path class="fur" d="M16 1h1v1h-1zM12 4h4v1h-4zM11 5h4v1h-4zM10 6h5v1h-5zM11 7h4v1h-4zM12 8h3v1h-3zM11 9h4v1h-4zM11 10h4v1h-4zM8 11h7v1h-7zM8 12h7v1h-7zM6 13h6v1h-6zM13 13h2v1h-2zM6 14h9v1h-9zM7 15h9v1h-9zM8 16h17v1h-17zM9 17h1v1h-1zM11 17h11v1h-11zM9 18h5v1h-5zM15 18h6v1h-6zM10 19h9v1h-9zM20 19h1v1h-1zM9 20h12v1h-12zM9 21h3v1h-3zM17 21h4v1h-4zM9 22h3v1h-3zM18 22h3v1h-3zM9 23h3v1h-3zM18 23h3v1h-3z"/><path class="fur-shade" d="M15 1h1v1h-1zM14 2h1v1h-1zM16 2h2v1h-2zM13 3h1v1h-1zM18 3h1v1h-1zM11 4h1v1h-1zM16 4h3v1h-3zM10 5h1v1h-1zM15 5h1v1h-1zM26 5h1v1h-1zM9 6h1v1h-1zM10 7h1v1h-1zM10 8h2v1h-2zM10 9h1v1h-1zM10 10h1v1h-1zM7 11h1v1h-1zM7 12h1v1h-1zM5 13h1v1h-1zM12 13h1v1h-1zM5 14h1v1h-1zM6 15h1v1h-1zM26 15h1v1h-1zM7 16h1v1h-1zM8 17h1v1h-1zM10 17h1v1h-1zM22 17h4v1h-4zM8 18h1v1h-1zM14 18h1v1h-1zM21 18h1v1h-1zM9 19h1v1h-1zM19 19h1v1h-1zM8 20h1v1h-1zM8 21h1v1h-1zM12 21h5v1h-5zM8 22h1v1h-1zM17 22h1v1h-1zM8 23h1v1h-1zM17 23h1v1h-1zM8 24h4v1h-4zM17 24h4v1h-4z"/><path class="skin" d="M6 7h3v1h-3zM6 8h3v1h-3zM6 9h1v1h-1zM27 12h3v1h-3zM27 13h4v1h-4zM27 14h1v1h-1zM29 14h2v1h-2zM4 15h1v1h-1zM27 15h4v1h-4zM3 16h3v1h-3zM27 16h1v1h-1zM29 16h1v1h-1zM2 17h5v1h-5zM3 18h4v1h-4zM4 19h2v1h-2zM4 25h4v1h-4zM21 25h4v1h-4zM4 26h8v1h-8zM17 26h8v1h-8zM4 27h8v1h-8zM17 27h8v1h-8z"/><path class="skin-deep" d="M7 9h2v1h-2zM6 10h1v1h-1zM19 10h1v1h-1zM21 10h1v1h-1zM23 10h1v1h-1zM18 11h7v1h-7zM18 12h7v1h-7zM18 13h1v1h-1zM20 13h1v1h-1zM22 13h1v1h-1zM24 13h1v1h-1zM26 16h1v1h-1zM30 16h1v1h-1zM27 17h3v1h-3zM2 18h1v1h-1zM3 19h1v1h-1zM6 19h1v1h-1zM4 20h2v1h-2zM4 28h8v1h-8zM17 28h8v1h-8z"/><path class="face" d="M17 6h9v1h-9zM19 7h4v1h-4zM25 7h1v1h-1zM17 8h1v1h-1zM19 8h4v1h-4zM24 8h2v1h-2zM17 9h9v1h-9zM17 10h1v1h-1zM25 10h1v1h-1zM17 11h1v1h-1zM25 11h1v1h-1zM17 12h1v1h-1zM25 12h1v1h-1zM17 13h1v1h-1zM25 13h1v1h-1z"/><path class="face-shade" d="M16 6h1v1h-1zM16 7h1v1h-1zM16 8h1v1h-1zM16 9h1v1h-1zM16 10h1v1h-1zM16 11h1v1h-1zM16 12h1v1h-1zM16 13h1v1h-1zM16 14h10v1h-10z"/><path class="teeth" d="M18 10h1v1h-1zM20 10h1v1h-1zM22 10h1v1h-1zM24 10h1v1h-1zM19 13h1v1h-1zM21 13h1v1h-1zM23 13h1v1h-1z"/><path class="line" d="M15 0h2v1h-2zM14 1h1v1h-1zM17 1h1v1h-1zM13 2h1v1h-1zM15 2h1v1h-1zM18 2h1v1h-1zM11 3h2v1h-2zM14 3h4v1h-4zM19 3h1v1h-1zM10 4h1v1h-1zM19 4h8v1h-8zM9 5h1v1h-1zM16 5h10v1h-10zM27 5h1v1h-1zM6 6h3v1h-3zM15 6h1v1h-1zM26 6h2v1h-2zM5 7h1v1h-1zM9 7h1v1h-1zM15 7h1v1h-1zM17 7h2v1h-2zM23 7h2v1h-2zM26 7h2v1h-2zM5 8h1v1h-1zM9 8h1v1h-1zM15 8h1v1h-1zM18 8h1v1h-1zM23 8h1v1h-1zM26 8h2v1h-2zM5 9h1v1h-1zM9 9h1v1h-1zM15 9h1v1h-1zM26 9h2v1h-2zM5 10h1v1h-1zM7 10h3v1h-3zM15 10h1v1h-1zM26 10h2v1h-2zM6 11h1v1h-1zM15 11h1v1h-1zM26 11h4v1h-4zM5 12h2v1h-2zM15 12h1v1h-1zM26 12h1v1h-1zM30 12h1v1h-1zM4 13h1v1h-1zM15 13h1v1h-1zM26 13h1v1h-1zM31 13h1v1h-1zM4 14h1v1h-1zM15 14h1v1h-1zM26 14h1v1h-1zM28 14h1v1h-1zM31 14h1v1h-1zM3 15h1v1h-1zM5 15h1v1h-1zM16 15h10v1h-10zM31 15h1v1h-1zM2 16h1v1h-1zM6 16h1v1h-1zM25 16h1v1h-1zM28 16h1v1h-1zM31 16h1v1h-1zM1 17h1v1h-1zM7 17h1v1h-1zM26 17h1v1h-1zM30 17h1v1h-1zM1 18h1v1h-1zM7 18h1v1h-1zM22 18h8v1h-8zM2 19h1v1h-1zM7 19h2v1h-2zM21 19h1v1h-1zM3 20h1v1h-1zM6 20h2v1h-2zM21 20h1v1h-1zM4 21h2v1h-2zM7 21h1v1h-1zM21 21h1v1h-1zM7 22h1v1h-1zM12 22h5v1h-5zM21 22h1v1h-1zM7 23h1v1h-1zM12 23h1v1h-1zM16 23h1v1h-1zM21 23h1v1h-1zM4 24h4v1h-4zM12 24h1v1h-1zM16 24h1v1h-1zM21 24h4v1h-4zM3 25h1v1h-1zM8 25h5v1h-5zM16 25h5v1h-5zM25 25h1v1h-1zM3 26h1v1h-1zM12 26h1v1h-1zM16 26h1v1h-1zM25 26h1v1h-1zM3 27h1v1h-1zM12 27h1v1h-1zM16 27h1v1h-1zM25 27h1v1h-1zM3 28h1v1h-1zM12 28h1v1h-1zM16 28h1v1h-1zM25 28h1v1h-1zM4 29h8v1h-8zM17 29h8v1h-8z"/></svg>